<svg width="30" height="51" viewBox="0 0 30 51" fill="none" xmlns="http://www.w3.org/2000/svg">
<path d="M20.0156 40.5938C20.0156 42.6562 20.3125 44.25 20.9062 45.375C21.5312 46.5 22.5 47.2969 23.8125 47.7656C25.1562 48.2344 26.9688 48.4688 29.25 48.4688V50.4844C22.25 50.2344 17.8281 50.1094 15.9844 50.1094C14.0156 50.1094 9.09375 50.2344 1.21875 50.4844V48.4688C4.625 48.4688 7.17188 47.9062 8.85938 46.7812C10.5469 45.625 11.3906 43.5625 11.3906 40.5938V17.3438C11.3906 14.25 11.0625 11.9844 10.4062 10.5469C9.78125 9.10938 8.70312 8.15625 7.17188 7.6875C5.67188 7.21875 3.35938 6.98438 0.234375 6.98438V4.875C4.92188 4.78125 8.78125 4.375 11.8125 3.65625C14.875 2.90625 17.6094 1.6875 20.0156 0V40.5938Z" fill="#E0E0E0"/>
</svg>
