<svg id="Calque_1" data-name="Calque 1" xmlns="http://www.w3.org/2000/svg" viewBox="0 0 51 51"><defs><style>.cls-1{fill:#242424;}</style></defs><path class="cls-1" d="M9.88,14.06a19,19,0,0,1,6-7.25A16.38,16.38,0,0,1,25.8,4c3.75,0,6.71.89,8.86,2.68a9.12,9.12,0,0,1,3.23,7.48,13.94,13.94,0,0,1-3.15,8.79,80.8,80.8,0,0,1-9.14,9.45,66.94,66.94,0,0,0-8,8H34a11.38,11.38,0,0,0,3.27-.35,2.67,2.67,0,0,0,1.5-1.22,7.88,7.88,0,0,0,.63-2.53h1.38q0,7.41.31,10.72-1.82-.39-12-.39H10.19V45.26q1.35-1.45,7.21-6.94a55.26,55.26,0,0,0,9.26-10.95,21.3,21.3,0,0,0,3.39-11.46Q30.05,7.2,22,7.2q-6.57,0-10.79,7.56Z"/></svg>