<svg width="39" height="52" viewBox="0 0 39 52" fill="none" xmlns="http://www.w3.org/2000/svg">
<path d="M0.984375 12C2.67188 8.5 5.0625 5.625 8.15625 3.375C11.25 1.125 15.1719 0 19.9219 0C24.3906 0 27.9062 1.0625 30.4688 3.1875C33.0312 5.28125 34.3125 8.25 34.3125 12.0938C34.3125 15.875 33.0625 19.3594 30.5625 22.5469C28.0625 25.7344 24.4375 29.4844 19.6875 33.7969C14.9375 38.0781 11.7812 41.2656 10.2188 43.3594H29.7188C31.4688 43.3594 32.7656 43.2188 33.6094 42.9375C34.4531 42.625 35.0469 42.1406 35.3906 41.4844C35.7344 40.8281 35.9844 39.8281 36.1406 38.4844H37.7812C37.7812 44.3594 37.9062 48.6094 38.1562 51.2344C36.7188 50.9219 31.9531 50.7656 23.8594 50.7656H1.35938V49.125C2.42188 47.9688 5.28125 45.2188 9.9375 40.875C14.5938 36.5 18.2656 32.1562 20.9531 27.8438C23.6406 23.5312 24.9844 18.9844 24.9844 14.2031C24.9844 7.29688 21.7812 3.84375 15.375 3.84375C10.1562 3.84375 5.875 6.84375 2.53125 12.8438L0.984375 12Z" fill="#E0E0E0"/>
</svg>
