<svg id="Calque_1" data-name="Calque 1" xmlns="http://www.w3.org/2000/svg" viewBox="0 0 51 51"><defs><style>.cls-1{fill:#242424;}</style></defs><path class="cls-1" d="M12.74,10.12q4.13-8.94,13.11-8.95a13.7,13.7,0,0,1,5.31,1A8.34,8.34,0,0,1,34.83,5a7.23,7.23,0,0,1,1.33,4.34,9.08,9.08,0,0,1-1.5,5,14.34,14.34,0,0,1-3.92,4.09,20.9,20.9,0,0,1-5.24,2.73A18.22,18.22,0,0,1,32,22.42a11.44,11.44,0,0,1,4.86,3.64A9.34,9.34,0,0,1,38.75,32a12.92,12.92,0,0,1-4,9.26,26.18,26.18,0,0,1-10.14,6.33,36.12,36.12,0,0,1-12.41,2.24v-1.3a24.71,24.71,0,0,0,9.58-2.09,18,18,0,0,0,7.31-5.67A14.16,14.16,0,0,0,31.93,32,12.46,12.46,0,0,0,31,27a8,8,0,0,0-2.66-3.53,7.25,7.25,0,0,0-4-1.51c-.21.1-.59.25-1.12.46a12.29,12.29,0,0,1-1.33.45,3.31,3.31,0,0,1-.91.14c-.77,0-1.15-.3-1.15-.91a1.1,1.1,0,0,1,.52-1,2.16,2.16,0,0,1,1.33-.39,7,7,0,0,1,1.19.14c.49.07.93.12,1.33.14a13.86,13.86,0,0,0,4.12-4.79,11.92,11.92,0,0,0,1.36-5.52,6.43,6.43,0,0,0-1.64-4.86,6.27,6.27,0,0,0-4.58-1.57A9.65,9.65,0,0,0,18,5.93a11.7,11.7,0,0,0-4,4.75Z"/></svg>