<svg width="36" height="66" viewBox="0 0 36 66" fill="none" xmlns="http://www.w3.org/2000/svg">
<path d="M0.65625 12C4.34375 4 10.2031 0 18.2344 0C20.8906 0 23.2656 0.4375 25.3594 1.3125C27.4531 2.1875 29.0938 3.45312 30.2812 5.10938C31.4688 6.76562 32.0625 8.70312 32.0625 10.9219C32.0625 13.2969 31.3906 15.5312 30.0469 17.625C28.7344 19.7188 26.9844 21.5469 24.7969 23.1094C22.6406 24.6406 20.2969 25.8594 17.7656 26.7656C20.8906 26.8281 23.7969 27.4062 26.4844 28.5C29.1719 29.5938 31.3438 31.2188 33 33.375C34.6875 35.5312 35.5312 38.1875 35.5312 41.3438C35.5312 46 33.7656 50.1406 30.2344 53.7656C26.7031 57.4219 22.1719 60.25 16.6406 62.25C11.1406 64.25 5.59375 65.25 0 65.25V63.5156C4.53125 63.4219 8.8125 62.4844 12.8438 60.7031C16.875 58.9531 20.1406 56.4219 22.6406 53.1094C25.1406 49.7969 26.3906 45.875 26.3906 41.3438C26.3906 38.875 25.9688 36.6562 25.125 34.6875C24.3125 32.6875 23.125 31.1094 21.5625 29.9531C20.0312 28.7656 18.25 28.0938 16.2188 27.9375C15.9375 28.0625 15.4375 28.2656 14.7188 28.5469C14 28.8281 13.4062 29.0312 12.9375 29.1562C12.4688 29.2812 12.0625 29.3438 11.7188 29.3438C10.6875 29.3438 10.1719 28.9375 10.1719 28.125C10.1719 27.5625 10.4062 27.125 10.875 26.8125C11.3438 26.4688 11.9375 26.2969 12.6562 26.2969C13.0625 26.2969 13.5938 26.3594 14.25 26.4844C14.9062 26.5781 15.5 26.6406 16.0312 26.6719C18.5312 24.7656 20.375 22.625 21.5625 20.25C22.7812 17.875 23.3906 15.4062 23.3906 12.8438C23.3906 9.90625 22.6562 7.73438 21.1875 6.32812C19.75 4.92188 17.7031 4.21875 15.0469 4.21875C12.3594 4.21875 9.92188 4.9375 7.73438 6.375C5.54688 7.78125 3.73438 9.90625 2.29688 12.75L0.65625 12Z" fill="#E0E0E0"/>
</svg>
