<svg id="Calque_1" data-name="Calque 1" xmlns="http://www.w3.org/2000/svg" viewBox="0 0 51 51"><defs><style>.cls-1{fill:#242424;}</style></defs><path class="cls-1" d="M34,1.17q0,6.93.27,10a68.31,68.31,0,0,0-9.46-.34H17.5L16.7,24a20.28,20.28,0,0,1,3.67-1.5,14.43,14.43,0,0,1,4.33-.57,14.75,14.75,0,0,1,6.7,1.37,9,9,0,0,1,4,3.73,10.87,10.87,0,0,1,1.33,5.43,13.64,13.64,0,0,1-3.33,9,21.88,21.88,0,0,1-8.53,6.17,27.39,27.39,0,0,1-10.66,2.2V48.59a18.12,18.12,0,0,0,7.83-1.8A14.38,14.38,0,0,0,28,41.53a15.17,15.17,0,0,0,2.27-8.43A9.5,9.5,0,0,0,28,26.37,8.26,8.26,0,0,0,21.67,24a13.54,13.54,0,0,0-2.84.26,20.63,20.63,0,0,0-2.76.9l-.67-.43L16.7,4.37a19.73,19.73,0,0,0,3.67.27H28.1a9.45,9.45,0,0,0,2.77-.3,2.08,2.08,0,0,0,1.23-1,7,7,0,0,0,.56-2.14Z"/></svg>