<?xml version="1.0" encoding="utf-8"?>
<!-- Generator: Adobe Illustrator 25.1.0, SVG Export Plug-In . SVG Version: 6.00 Build 0)  -->
<svg version="1.1" id="Layer_1" xmlns="http://www.w3.org/2000/svg" xmlns:xlink="http://www.w3.org/1999/xlink" x="0px" y="0px"
	 viewBox="0 0 901.5 1444" style="enable-background:new 0 0 901.5 1444;" xml:space="preserve">
<style type="text/css">
	.st0{fill:#FFFFFF;}
</style>
<g>
	<path class="st0" d="M888.5,1171.8l-219-218.9c-5.1-5.1-11.8-7.9-19-7.9s-14,2.8-19,7.9L615.3,969c-10.5,10.5-10.5,27.6,0,38
		l183.9,183.9L615.1,1375c-5.1,5.1-7.9,11.8-7.9,19s2.8,14,7.9,19l16.1,16.1c5.1,5.1,11.8,7.9,19,7.9s14-2.8,19-7.9L888.5,1210
		c5.1-5.1,7.9-11.9,7.8-19.1C896.3,1183.7,893.6,1176.9,888.5,1171.8z"/>
	<path class="st0" d="M13.1,1210.2L232,1429.1c5.1,5.1,11.8,7.9,19,7.9c7.2,0,14-2.8,19-7.9l16.1-16.1c10.5-10.5,10.5-27.6,0-38.1
		l-183.7-183.8L286.5,1007c5.1-5.1,7.9-11.8,7.9-19s-2.8-14-7.9-19l-16.1-16.1c-5.1-5.1-11.8-7.9-19-7.9s-14,2.8-19,7.9L13.1,1172
		c-5.1,5.1-7.9,11.9-7.8,19.1C5.3,1198.3,8.1,1205.1,13.1,1210.2z"/>
</g>
</svg>
