<svg width="15" height="12" viewBox="0 0 15 12" fill="none" xmlns="http://www.w3.org/2000/svg">
<path d="M13.4419 0.860465C12.4496 1.27907 11.5969 1.93798 10.8837 2.83721C10.1705 3.72093 9.81395 4.62016 9.81395 5.53488C9.81395 5.92248 9.86047 6.25581 9.95349 6.53488C10.4961 6.11628 11.0853 5.90698 11.7209 5.90698C12.5891 5.90698 13.3101 6.18605 13.8837 6.74419C14.4729 7.28682 14.7674 8.02326 14.7674 8.95349C14.7674 9.82171 14.4729 10.5504 13.8837 11.1395C13.2946 11.7132 12.5736 12 11.7209 12C10.4961 12 9.55814 11.4961 8.90698 10.4884C8.36434 9.65116 8.09302 8.60465 8.09302 7.34884C8.09302 5.75194 8.49612 4.32558 9.30233 3.06977C10.124 1.79845 11.3566 0.775194 13 0L13.4419 0.860465ZM5.34884 0.860465C4.35659 1.27907 3.50388 1.93798 2.7907 2.83721C2.07752 3.72093 1.72093 4.62016 1.72093 5.53488C1.72093 5.92248 1.76744 6.25581 1.86047 6.53488C2.3876 6.11628 2.97674 5.90698 3.62791 5.90698C4.48062 5.90698 5.20155 6.18605 5.7907 6.74419C6.37985 7.28682 6.67442 8.02326 6.67442 8.95349C6.67442 9.52713 6.53488 10.0465 6.25581 10.5116C5.97674 10.9767 5.60465 11.3411 5.13954 11.6047C4.67442 11.8682 4.17054 12 3.62791 12C2.4031 12 1.46512 11.4961 0.813954 10.4884C0.271318 9.65116 0 8.60465 0 7.34884C0 5.75194 0.403101 4.32558 1.2093 3.06977C2.03101 1.79845 3.26357 0.775194 4.90698 0L5.34884 0.860465Z" fill="#242424"/>
</svg>
