<svg width="80" height="12" viewBox="0 0 80 12" fill="none" xmlns="http://www.w3.org/2000/svg">
<path fill-rule="evenodd" clip-rule="evenodd" d="M6 0L4.15037 3.95189L0 4.59004L3.00662 7.6636L2.2875 12.0007L6 9.95049L9.7136 12.0007L8.99338 7.6636L12 4.59004L7.85074 3.95189L6 0Z" fill="#242424"/>
<path fill-rule="evenodd" clip-rule="evenodd" d="M23 0L21.1504 3.95189L17 4.59004L20.0066 7.6636L19.2875 12.0007L23 9.95049L26.7136 12.0007L25.9934 7.6636L29 4.59004L24.8507 3.95189L23 0Z" fill="#242424"/>
<path fill-rule="evenodd" clip-rule="evenodd" d="M40 0L38.1504 3.95189L34 4.59004L37.0066 7.6636L36.2875 12.0007L40 9.95049L43.7136 12.0007L42.9934 7.6636L46 4.59004L41.8507 3.95189L40 0Z" fill="#242424"/>
<path fill-rule="evenodd" clip-rule="evenodd" d="M57 0L55.1504 3.95189L51 4.59004L54.0066 7.6636L53.2875 12.0007L57 9.95049L60.7136 12.0007L59.9934 7.6636L63 4.59004L58.8507 3.95189L57 0Z" fill="#242424"/>
<path fill-rule="evenodd" clip-rule="evenodd" d="M74 0L72.1504 3.95189L68 4.59004L71.0066 7.6636L70.2875 12.0007L74 9.95049L77.7136 12.0007L76.9934 7.6636L80 4.59004L75.8507 3.95189L74 0Z" fill="#242424"/>
</svg>
