<svg width="389" height="110" viewBox="0 0 389 110" fill="none" xmlns="http://www.w3.org/2000/svg">
<g id="1 - Kerastase Logo_fond transparent">
<g id="LOGO">
<g id="Group">
<path id="Shape" fill-rule="evenodd" clip-rule="evenodd" d="M67 14.7H64.4L74.1 4C74.8 3.2 75.4 2.6 76 1.9C76.7 1.4 77.2 0.5 78.1 0.4C79.3 0.0999997 80.8 0.8 81.2 2.2C81.4 2.8 81.6 4 81.1 4.5C80.7 5.4 79.9 5.9 79.2 6.4L67 14.7Z" fill="#152128"/>
<path id="Shape_2" fill-rule="evenodd" clip-rule="evenodd" d="M313.9 78.3H306.1L297.8 55.2H278.8L270.2 78.3H264.9L289 18.4H290.8L313.9 78.3ZM288.3 29.6L280.1 51.5H296.6L288.3 29.6Z" fill="#152128"/>
<path id="Shape_3" fill-rule="evenodd" clip-rule="evenodd" d="M187.7 78.3H179.9L171.6 55.2H152.6L144 78.3H138.6L162.7 18.4H164.5L187.7 78.3ZM162.1 29.6L153.9 51.5H170.4L162.1 29.6Z" fill="#152128"/>
<path id="Shape_4" fill-rule="evenodd" clip-rule="evenodd" d="M180.7 109.7H178.4L175.9 102.7H170.2L167.6 109.7H166L173.2 91.7H173.7L180.7 109.7ZM173 95L170.5 101.6H175.4L173 95Z" fill="#152128"/>
<path id="Shape_5" fill-rule="evenodd" clip-rule="evenodd" d="M388.5 74C388.5 74 388.4 77.2 388.5 78H360.6V19.6H388V23.6H367.4V45.1H386.2V48.9H367.4V73.9H388.5V74Z" fill="#152128"/>
<path id="Shape_6" fill-rule="evenodd" clip-rule="evenodd" d="M85.3 74C85.3 74 85.2 77.2 85.3 78H57.4V19.6H84.8V23.6H64.2V45.1H83V48.9H64.2V73.9H85.3V74Z" fill="#152128"/>
<path id="Shape_7" fill-rule="evenodd" clip-rule="evenodd" d="M331.6 79.4C326.9 79.4 322.8 78.4 319.3 76.3V68.9C321.1 71.1 325.8 76.3 332.9 76.3C341.5 76.3 345.4 70.3 345.4 64.4C345.4 57.1 340.7 54.4 335.2 52.1C326.6 48.3 324.4 47.4 322.3 45.4C319.8 43.3 318.3 39.2 318.3 34.9C318.3 23.5 327.2 18.4 336.1 18.4C341.3 18.4 345.6 20.1 347.4 21V28.1C345.8 26.1 341.2 21.3 335.1 21.3C324.6 21.3 324.3 30.6 324.3 31.6C324.3 38.8 330 41.2 333.9 42.9C342.3 46.3 344.6 47.2 347.3 49.6C351 52.7 351.8 57.2 351.8 60.4C351.7 69.9 345.5 79.4 331.6 79.4Z" fill="#152128"/>
<path id="Shape_8" fill-rule="evenodd" clip-rule="evenodd" d="M227.6 109.7C226.2 109.7 225 109.4 223.9 108.8V106.6C224.5 107.3 225.8 108.8 228 108.8C230.6 108.8 231.7 107 231.7 105.2C231.7 103 230.3 102.2 228.6 101.5C226 100.4 225.3 100.1 224.7 99.5C224 98.9 223.5 97.7 223.5 96.4C223.5 93 226.2 91.5 228.8 91.5C230.4 91.5 231.7 92 232.2 92.3V94.4C231.7 93.8 230.3 92.4 228.5 92.4C225.3 92.4 225.2 95.2 225.2 95.5C225.2 97.7 226.9 98.4 228.1 98.9C230.6 99.9 231.3 100.2 232.1 100.9C233.2 101.8 233.4 103.2 233.4 104.2C233.6 106.8 231.8 109.7 227.6 109.7Z" fill="#152128"/>
<path id="Shape_9" fill-rule="evenodd" clip-rule="evenodd" d="M205 79.7C200.3 79.7 196.2 78.7 192.7 76.6V69.2C194.6 71.4 199.2 76.6 206.3 76.6C214.9 76.6 218.8 70.6 218.8 64.7C218.8 57.4 214.1 54.7 208.7 52.4C200.1 48.6 197.9 47.7 195.8 45.7C193.3 43.6 191.8 39.5 191.8 35.2C191.8 23.8 200.7 18.7 209.6 18.7C214.8 18.7 219.1 20.4 220.9 21.3V28.4C219.3 26.4 214.7 21.6 208.6 21.6C198.1 21.6 197.8 30.9 197.8 31.9C197.8 39.1 203.5 41.5 207.4 43.2C215.8 46.6 218.1 47.5 220.8 49.9C224.5 53 225.2 57.5 225.2 60.7C225.2 70.1 218.9 79.7 205 79.7Z" fill="#152128"/>
<path id="Shape_10" fill-rule="evenodd" clip-rule="evenodd" d="M268.2 19.6H228.4V23.4H245.3V78.4H252.1V23.4H268.2V19.6Z" fill="#152128"/>
<path id="Shape_11" fill-rule="evenodd" clip-rule="evenodd" d="M114.9 48.9C122.7 47.4 131.3 42.9 131.3 33C131.3 24.3 124.5 19.6 113.5 19.6H97.2V78.3H104V49.7H106.9L113.1 57.8L122.2 70.9C123.8 73.3 125.4 75.7 127.1 78.4C128.5 78.3 136 78.4 136 78.4L114.9 48.9ZM108.5 46.6C106.7 46.7 105.5 46.7 104 46.5V22.8H110.4C116.4 22.8 124.4 23.8 124.4 33.9C124.4 45.9 112.2 46.4 108.5 46.6Z" fill="#152128"/>
<path id="Shape_12" fill-rule="evenodd" clip-rule="evenodd" d="M155.4 100.9C157.7 100.4 160.3 99.1 160.3 96.1C160.3 93.5 158.3 92.1 155 92.1H150.1V109.7H152.1V101.1H153C154 101.1 155.4 100.9 155.4 100.9ZM153.4 100.2C152.8 100.2 152.5 100.2 152.1 100.2V93.1H154C155.8 93.1 158.2 93.4 158.2 96.4C158.2 100 154.5 100.1 153.4 100.2Z" fill="#152128"/>
<path id="Shape_13" fill-rule="evenodd" clip-rule="evenodd" d="M196.2 100.9C198.5 100.4 201.1 99.1 201.1 96.1C201.1 93.5 199.1 92.1 195.8 92.1H190.9V109.7H192.9V101.1H193.8L195.7 103.5L198.4 107.4C198.9 108.1 199.4 108.8 199.9 109.6C200.3 109.6 202.6 109.6 202.6 109.6L196.2 100.9ZM194.3 100.2C193.7 100.2 193.4 100.2 193 100.2V93.1H194.9C196.7 93.1 199.1 93.4 199.1 96.4C199 100 195.4 100.1 194.3 100.2Z" fill="#152128"/>
<path id="Shape_14" fill-rule="evenodd" clip-rule="evenodd" d="M15.6 35.1L50 0H41.4L9.8 35.5C9.8 35.5 8.9 36.5 8.3 36.5V0H0V78.3H8.3V38.4C8.9 38.5 9.5 39.3 9.5 39.3L39.9 78.3H50.9L15.6 35.1Z" fill="#152128"/>
<rect id="Rectangle-path" x="212" y="92" width="2" height="17.7" fill="#152128"/>
</g>
</g>
</g>
</svg>
