<?xml version="1.0" encoding="utf-8"?>
<!-- Generator: Adobe Illustrator 25.3.1, SVG Export Plug-In . SVG Version: 6.00 Build 0)  -->
<svg version="1.1" id="Calque_1" xmlns="http://www.w3.org/2000/svg" xmlns:xlink="http://www.w3.org/1999/xlink" x="0px" y="0px"
	 viewBox="0 0 51 51" style="enable-background:new 0 0 51 51;" xml:space="preserve">
<style type="text/css">
	.st0{fill:#EDE1DE;}
</style>
<path class="st0" d="M29.9,38.2c-0.1,1.4,0.2,2.7,0.7,3.9c0.5,0.9,1.4,1.7,2.4,2c1.5,0.4,3,0.6,4.5,0.6v1.6C31.7,46.1,28,46,26.5,46
	s-5.7,0.1-12.2,0.3v-1.7c2.8,0,4.9-0.5,6.3-1.4s2.1-2.6,2.1-5.1V19c0.1-1.9-0.2-3.8-0.8-5.6c-0.5-1.2-1.5-2.1-2.7-2.4
	c-1.9-0.5-3.8-0.6-5.7-0.6V8.7c3.2,0,6.4-0.3,9.5-1c2.4-0.6,4.7-1.6,6.8-3V38.2z"/>
</svg>
