<?xml version="1.0" encoding="utf-8"?>
<!-- Generator: Adobe Illustrator 25.3.1, SVG Export Plug-In . SVG Version: 6.00 Build 0)  -->
<svg version="1.1" id="Calque_1" xmlns="http://www.w3.org/2000/svg" xmlns:xlink="http://www.w3.org/1999/xlink" x="0px" y="0px"
	 viewBox="0 0 51 51" style="enable-background:new 0 0 51 51;" xml:space="preserve">
<style type="text/css">
	.st0{fill:#EDE1DE;}
</style>
<path class="st0" d="M9.9,14.1c1.4-2.9,3.4-5.4,6-7.2c2.9-2,6.4-3,9.9-2.8c3.8,0,6.7,0.9,8.9,2.7c2.2,1.8,3.4,4.6,3.2,7.5
	c0,3.2-1.1,6.3-3.2,8.8c-2.8,3.4-5.8,6.6-9.1,9.5c-2.9,2.4-5.6,5.1-8,8H34c1.1,0,2.2-0.1,3.3-0.3c0.6-0.2,1.2-0.6,1.5-1.2
	c0.3-0.8,0.6-1.7,0.6-2.5h1.4c0,4.9,0.1,8.5,0.3,10.7c-1.2-0.3-5.2-0.4-12-0.4H10.2v-1.4c0.9-1,3.3-3.3,7.2-6.9
	c3.5-3.2,6.7-6.9,9.3-11C28.9,24,30,20,30,15.9c0-5.8-2.7-8.7-8-8.7c-4.4,0-8,2.5-10.8,7.6L9.9,14.1z"/>
</svg>
