<?xml version="1.0" encoding="utf-8"?>
<!-- Generator: Adobe Illustrator 25.3.1, SVG Export Plug-In . SVG Version: 6.00 Build 0)  -->
<svg version="1.1" id="Calque_1" xmlns="http://www.w3.org/2000/svg" xmlns:xlink="http://www.w3.org/1999/xlink" x="0px" y="0px"
	 viewBox="0 0 51 51" style="enable-background:new 0 0 51 51;" xml:space="preserve">
<style type="text/css">
	.st0{fill:#EDE1DE;}
</style>
<path class="st0" d="M12.7,10.1c2.8-6,7.1-8.9,13.1-8.9c1.8,0,3.6,0.3,5.3,1c1.5,0.6,2.7,1.6,3.7,2.8c0.9,1.3,1.4,2.8,1.3,4.3
	c0,1.8-0.5,3.5-1.5,5c-1,1.6-2.4,3-3.9,4.1c-1.6,1.2-3.4,2.1-5.2,2.7c2.2,0,4.4,0.4,6.5,1.3c1.9,0.8,3.6,2,4.9,3.6
	c1.3,1.7,2,3.8,1.9,5.9c0,3.5-1.5,6.8-4,9.3c-2.8,2.9-6.3,5-10.1,6.3c-4,1.5-8.2,2.2-12.4,2.2v-1.3c3.3,0,6.6-0.8,9.6-2.1
	c2.9-1.2,5.4-3.2,7.3-5.7c1.9-2.5,2.9-5.6,2.8-8.8c0-1.7-0.3-3.4-0.9-5c-0.5-1.4-1.5-2.6-2.7-3.5c-1.2-0.9-2.5-1.4-4-1.5
	c-0.2,0.1-0.6,0.2-1.1,0.5c-0.4,0.2-0.9,0.3-1.3,0.5C21.6,23,21.3,23,21,23c-0.8,0-1.1-0.3-1.1-0.9c0-0.4,0.2-0.8,0.5-1
	c0.4-0.3,0.9-0.4,1.3-0.4c0.4,0,0.8,0.1,1.2,0.1c0.5,0.1,0.9,0.1,1.3,0.1c1.7-1.3,3.1-2.9,4.1-4.8c0.9-1.7,1.4-3.6,1.4-5.5
	c0.2-1.8-0.4-3.5-1.6-4.9c-1.3-1.1-2.9-1.7-4.6-1.6c-1.9,0-3.9,0.6-5.5,1.7c-1.7,1.2-3.1,2.8-4,4.8L12.7,10.1z"/>
</svg>
