<?xml version="1.0" encoding="utf-8"?>
<!-- Generator: Adobe Illustrator 25.3.1, SVG Export Plug-In . SVG Version: 6.00 Build 0)  -->
<svg version="1.1" id="Calque_1" xmlns="http://www.w3.org/2000/svg" xmlns:xlink="http://www.w3.org/1999/xlink" x="0px" y="0px"
	 viewBox="0 0 51 51" style="enable-background:new 0 0 51 51;" xml:space="preserve">
<style type="text/css">
	.st0{fill:#EDE1DE;}
</style>
<path class="st0" d="M34,1.2c0,4.6,0.1,8,0.3,10c-3.1-0.3-6.3-0.4-9.5-0.3h-7.3L16.7,24c1.2-0.6,2.4-1.1,3.7-1.5
	c1.4-0.4,2.9-0.6,4.3-0.6c2.3-0.1,4.6,0.4,6.7,1.4c1.7,0.8,3.1,2.1,4,3.7c0.9,1.7,1.4,3.5,1.3,5.4c0,3.3-1.2,6.5-3.3,9
	c-2.3,2.7-5.2,4.8-8.5,6.2c-3.4,1.4-7,2.2-10.7,2.2v-1.2c2.7,0,5.4-0.6,7.8-1.8c2.4-1.2,4.5-3,6-5.3c1.6-2.5,2.4-5.5,2.3-8.4
	c0.1-2.5-0.7-4.9-2.3-6.7c-1.7-1.7-4-2.5-6.3-2.4c-1,0-1.9,0.1-2.8,0.3c-0.9,0.2-1.9,0.5-2.8,0.9l-0.7-0.4l1.3-20.4
	c1.2,0.2,2.4,0.3,3.7,0.3h7.7c0.9,0,1.9-0.1,2.8-0.3c0.5-0.2,1-0.5,1.2-1c0.3-0.7,0.5-1.4,0.6-2.1L34,1.2z"/>
</svg>
