<svg width="30" height="31" viewBox="0 0 30 31" fill="none" xmlns="http://www.w3.org/2000/svg">
<path d="M11.25 18.4033C12.1129 18.4033 12.8125 17.7038 12.8125 16.8408C12.8125 15.9779 12.1129 15.2783 11.25 15.2783C10.3871 15.2783 9.6875 15.9779 9.6875 16.8408C9.6875 17.7038 10.3871 18.4033 11.25 18.4033Z" fill="#242424"/>
<path d="M25.9625 11.3158L24.8125 13.8283C24.925 14.4033 25 14.9908 25 15.5908C25 21.1033 20.5125 25.5908 15 25.5908C9.4875 25.5908 5 21.1033 5 15.5908C5 15.5283 5.0125 15.4658 5 15.4158C8.25 14.1908 10.8625 11.6783 12.175 8.47832C14.475 11.2908 17.9625 13.0908 21.875 13.0908C22.4375 13.0908 22.9875 13.0408 23.5375 12.9658L22.7875 11.3158L21.6875 8.90332L19.275 7.80332L15.7875 6.21582L19.275 4.62832L20.1625 4.22832C18.5875 3.50332 16.8375 3.09082 15 3.09082C8.1 3.09082 2.5 8.69082 2.5 15.5908C2.5 22.4908 8.1 28.0908 15 28.0908C21.9 28.0908 27.5 22.4908 27.5 15.5908C27.5 13.7533 27.0875 12.0033 26.375 10.4283L25.9625 11.3158Z" fill="#242424"/>
<path d="M18.75 18.4033C19.6129 18.4033 20.3125 17.7038 20.3125 16.8408C20.3125 15.9779 19.6129 15.2783 18.75 15.2783C17.8871 15.2783 17.1875 15.9779 17.1875 16.8408C17.1875 17.7038 17.8871 18.4033 18.75 18.4033Z" fill="#242424"/>
<path d="M25.75 7.59082L24.375 10.5908L23 7.59082L20 6.21582L23 4.84082L24.375 1.84082L25.75 4.84082L28.75 6.21582L25.75 7.59082Z" fill="#242424"/>
</svg>
