<svg width="26" height="23" viewBox="0 0 26 23" fill="none" xmlns="http://www.w3.org/2000/svg">
<path d="M14.3875 4.74082L13.675 8.35332C13.525 9.09082 13.725 9.85332 14.2 10.4283C14.675 11.0033 15.375 11.3408 16.125 11.3408H23V12.6908L19.7875 20.0908H9.675C9.45 20.0908 9.25 19.8908 9.25 19.6658V9.86582L14.3875 4.74082ZM15.5 0.0908203L7.4875 8.10332C7.0125 8.57832 6.75 9.21582 6.75 9.87832V19.6658C6.75 21.2783 8.0625 22.5908 9.675 22.5908H19.8C20.6875 22.5908 21.5 22.1283 21.95 21.3783L25.2875 13.6908C25.425 13.3783 25.5 13.0408 25.5 12.6908V11.3408C25.5 9.96582 24.375 8.84082 23 8.84082H16.125L17.275 3.02832C17.3375 2.75332 17.3 2.45332 17.175 2.20332C16.8875 1.64082 16.525 1.12832 16.075 0.67832L15.5 0.0908203ZM3 8.84082H0.5V22.5908H3C3.6875 22.5908 4.25 22.0283 4.25 21.3408V10.0908C4.25 9.40332 3.6875 8.84082 3 8.84082Z" fill="#242424"/>
</svg>
