<svg width="30" height="31" viewBox="0 0 30 31" fill="none" xmlns="http://www.w3.org/2000/svg">
<path d="M22.075 10.5908L15 3.52832L7.925 10.5908C5.975 12.5408 5 15.1408 5 17.6408C5 20.1408 5.975 22.7783 7.925 24.7283C9.875 26.6783 12.4375 27.6658 15 27.6658C17.5625 27.6658 20.125 26.6783 22.075 24.7283C24.025 22.7783 25 20.1408 25 17.6408C25 15.1408 24.025 12.5408 22.075 10.5908ZM7.5 18.0908C7.5125 15.5908 8.275 14.0033 9.7 12.5908L15 7.17832L20.3 12.6533C21.725 14.0533 22.4875 15.5908 22.5 18.0908H7.5Z" fill="#242424"/>
</svg>
