<svg width="30" height="31" viewBox="0 0 30 31" fill="none" xmlns="http://www.w3.org/2000/svg">
<path d="M15.0003 1.84082C14.3648 1.84082 13.7154 1.89608 13.0661 2.03424C9.25294 2.76648 6.21346 5.8474 5.49504 9.66056C4.83188 13.2665 6.1582 16.5823 8.56215 18.7237C9.15623 19.2487 9.47399 19.981 9.47399 20.7546V23.9461C9.47399 25.4658 10.7174 26.7092 12.2371 26.7092H12.624C13.1075 27.5382 13.9779 28.0908 15.0003 28.0908C16.0227 28.0908 16.9069 27.5382 17.3766 26.7092H17.7635C19.2832 26.7092 20.5266 25.4658 20.5266 23.9461V20.7546C20.5266 19.9948 20.8306 19.2487 21.4108 18.7375C23.4141 16.9691 24.6714 14.3856 24.6714 11.5119C24.6714 6.16516 20.347 1.84082 15.0003 1.84082ZM17.7635 21.1829H12.2371V19.8013H17.7635V21.1829ZM12.2371 23.9461V22.5645H17.7635V23.9461H12.2371ZM19.5733 16.679C19.449 16.7895 19.3523 16.9277 19.2418 17.0382H10.745C10.6345 16.9138 10.5378 16.7757 10.4135 16.6652C8.58978 15.0349 7.77465 12.6033 8.21675 10.1717C8.71412 7.49148 10.9246 5.26714 13.5911 4.74214C14.0608 4.64543 14.5306 4.60398 15.0003 4.60398C18.8135 4.60398 21.9082 7.69871 21.9082 11.5119C21.9082 13.4875 21.0654 15.3665 19.5733 16.679Z" fill="#242424"/>
<path d="M15.691 12.8934H14.3094V17.0382H15.691V12.8934Z" fill="#242424"/>
<path d="M12.7613 9.95582L11.7844 10.9327L14.7152 13.8635L15.6921 12.8866L12.7613 9.95582Z" fill="#242424"/>
<path d="M14.311 12.9005L15.2879 13.8774L18.2186 10.9467L17.2417 9.96978L14.311 12.9005Z" fill="#242424"/>
</svg>
