<svg width="142" height="6" viewBox="0 0 142 6" fill="none" xmlns="http://www.w3.org/2000/svg">
<path d="M1 0.28125V5.28125" stroke="#242424" stroke-width="2"/>
<path d="M5 0.28125V5.28125" stroke="#242424" stroke-width="2"/>
<path d="M9 0.28125V5.28125" stroke="#242424" stroke-width="2"/>
<path d="M13 0.28125V5.28125" stroke="#242424" stroke-width="2"/>
<path d="M17 0.28125V5.28125" stroke="#242424" stroke-width="2"/>
<path d="M21 0.28125V5.28125" stroke="#242424" stroke-width="2"/>
<path d="M25 0.28125V5.28125" stroke="#242424" stroke-width="2"/>
<path d="M29 0.28125V5.28125" stroke="#242424" stroke-width="2"/>
<path d="M33 0.28125V5.28125" stroke="#242424" stroke-width="2"/>
<path d="M37 0.28125V5.28125" stroke="#242424" stroke-width="2"/>
<path d="M41 0.28125V5.28125" stroke="#242424" stroke-width="2"/>
<path d="M45 0.28125V5.28125" stroke="#242424" stroke-width="2"/>
<path d="M49 0.28125V5.28125" stroke="#242424" stroke-width="2"/>
<path d="M53 0.28125V5.28125" stroke="#242424" stroke-width="2"/>
<path d="M57 0.28125V5.28125" stroke="#242424" stroke-width="2"/>
<path d="M61 0.28125V5.28125" stroke="#242424" stroke-width="2"/>
<path d="M65 0.28125V5.28125" stroke="#242424" stroke-width="2"/>
<path d="M69 0.28125V5.28125" stroke="#242424" stroke-width="2"/>
<path d="M73 0.28125V5.28125" stroke="#242424" stroke-width="2"/>
<path d="M77 0.28125V5.28125" stroke="#242424" stroke-width="2"/>
<path d="M81 0.28125V5.28125" stroke="#242424" stroke-width="2"/>
<path d="M85 0.28125V5.28125" stroke="#242424" stroke-width="2"/>
<path d="M89 0.28125V5.28125" stroke="#242424" stroke-width="2"/>
<path d="M93 0.28125V5.28125" stroke="#242424" stroke-width="2"/>
<path d="M97 0.28125V5.28125" stroke="#242424" stroke-width="2"/>
<path d="M101 0.28125V5.28125" stroke="#242424" stroke-width="2"/>
<path d="M105 0.28125V5.28125" stroke="#242424" stroke-width="2"/>
<path d="M109 0.28125V5.28125" stroke="#242424" stroke-width="2"/>
<path d="M113 0.28125V5.28125" stroke="#242424" stroke-width="2"/>
<path d="M117 0.28125V5.28125" stroke="#242424" stroke-width="2"/>
<path d="M121 0.28125V5.28125" stroke="#242424" stroke-width="2"/>
<path d="M125 0.28125V5.28125" stroke="#242424" stroke-width="2"/>
<path d="M129 0.28125V5.28125" stroke="#242424" stroke-width="2"/>
<path d="M133 0.28125V5.28125" stroke="#242424" stroke-width="2"/>
<path d="M137 0.28125V5.28125" stroke="#242424" stroke-width="2"/>
<path d="M141 0.28125V5.28125" stroke="#242424" stroke-width="2"/>
</svg>
